<?xml version="1.0" standalone="no"?><!DOCTYPE svg PUBLIC "-//W3C//DTD SVG 1.1//EN" "http://www.w3.org/Graphics/SVG/1.1/DTD/svg11.dtd"><svg t="1508583122638" class="icon" style="" viewBox="0 0 1152 1024" version="1.1" xmlns="http://www.w3.org/2000/svg" p-id="1893" xmlns:xlink="http://www.w3.org/1999/xlink" width="18" height="16"><defs><style type="text/css"></style></defs><path d="M1026.88 326.848h-181.76c-7.552 0-13.696 6.4-13.696 14.208v28.416c0 7.872 6.144 14.272 13.76 14.272h181.696c7.552 0 13.696-6.4 13.696-14.272V341.12a13.952 13.952 0 0 0-13.696-14.208zM576 837.376c-112.512 0-203.968-94.976-203.968-211.584 0-116.672 91.52-211.584 203.968-211.584 112.512 0 204.032 94.912 204.032 211.584 0 116.608-91.52 211.584-204.032 211.584z m0-480c-142.72 0-258.816 120.32-258.816 268.416 0 148.032 116.096 268.416 258.816 268.416 142.72 0 258.88-120.384 258.88-268.416 0-148.032-116.096-268.416-258.88-268.416z m521.152 578.944a28.032 28.032 0 0 1-27.456 28.416H82.304a27.968 27.968 0 0 1-27.456-28.416V253.632c0-15.68 12.352-28.416 27.456-28.416h499.072l68.032-149.632a27.52 27.52 0 0 1 24.832-16.32h154.56c11.2 0 21.184 6.976 25.408 17.728l58.24 148.224h157.248c15.104 0 27.52 12.8 27.52 28.416V936.32z m-27.456-769.6h-120.384l-44.224-113.28A82.112 82.112 0 0 0 828.8 0h-154.56c-31.68 0-60.928 19.264-74.432 49.152L546.56 166.72H82.304c-45.44 0-82.304 38.4-82.304 85.76V938.24C0 985.6 36.928 1024 82.304 1024h987.392c45.44 0 82.304-38.4 82.304-85.76V252.416c0-47.232-36.864-85.76-82.304-85.76z" p-id="1894" fill="#bfbfbf"></path></svg>