<?xml version="1.0" standalone="no"?><!DOCTYPE svg PUBLIC "-//W3C//DTD SVG 1.1//EN" "http://www.w3.org/Graphics/SVG/1.1/DTD/svg11.dtd"><svg t="1508584016066" class="icon" style="" viewBox="0 0 1025 1024" version="1.1" xmlns="http://www.w3.org/2000/svg" p-id="4457" xmlns:xlink="http://www.w3.org/1999/xlink" width="16.015625" height="16"><defs><style type="text/css"></style></defs><path d="M999.155846 878.410105l-244.928292-245.051083c-2.865137-2.906068-6.057718-4.993525-9.045647-7.367496a402.019666 402.019666 0 0 0 65.529779-220.697418A405.253178 405.253178 0 0 0 405.335717 0C181.568509 0 0.000678 181.404109 0.000678 405.294108c0 223.93093 181.608762 405.335039 405.335039 405.335039 81.451755 0 157.214166-24.230874 220.86114-65.61164 2.29211 3.06979 4.379567 6.057718 7.285634 8.963786l245.051083 245.051084c16.617795 16.740587 38.433768 24.967623 60.331601 24.967623s43.591014-8.227037 60.331602-24.967623a85.462947 85.462947 0 0 0-0.040931-120.622272z m-593.779199-195.647934c-152.91646 0-277.304341-124.510672-277.304341-277.386202a277.672716 277.672716 0 0 1 277.304341-277.304341c152.834599 0 277.386202 124.469742 277.386202 277.304341 0 152.793669-124.551603 277.386202-277.386202 277.386202z" p-id="4458" fill="#ffffff"></path></svg>